<?xml version="1.0" encoding="UTF-8" standalone="no"?>
<!DOCTYPE svg PUBLIC "-//W3C//DTD SVG 1.1//EN"
 "http://www.w3.org/Graphics/SVG/1.1/DTD/svg11.dtd">
<!-- Generated by graphviz version 2.43.0 (0)
 -->
<!-- Title: models_diagram Pages: 1 -->
<svg width="2749pt" height="627pt"
 viewBox="0.00 0.00 2749.00 627.00" xmlns="http://www.w3.org/2000/svg" xmlns:xlink="http://www.w3.org/1999/xlink">
<g id="graph0" class="graph" transform="scale(1 1) rotate(0) translate(4 623)">
<title>models_diagram</title>
<polygon fill="transparent" stroke="transparent" points="-4,4 -4,-623 2745,-623 2745,4 -4,4"/>
<!-- ApplicationRecord -->
<g id="node1" class="node">
<title>ApplicationRecord</title>
<ellipse fill="none" stroke="black" cx="264.5" cy="-528" rx="95.58" ry="18"/>
<text text-anchor="middle" x="264.5" y="-524.3" font-family="Times,serif" font-size="14.00">ApplicationRecord</text>
</g>
<!-- Author -->
<g id="node2" class="node">
<title>Author</title>
<path fill="none" stroke="black" d="M390,-475C390,-475 701,-475 701,-475 707,-475 713,-481 713,-487 713,-487 713,-569 713,-569 713,-575 707,-581 701,-581 701,-581 390,-581 390,-581 384,-581 378,-575 378,-569 378,-569 378,-487 378,-487 378,-481 384,-475 390,-475"/>
<text text-anchor="middle" x="545.5" y="-565.8" font-family="Times,serif" font-size="14.00">Author</text>
<polyline fill="none" stroke="black" points="378,-558 713,-558 "/>
<text text-anchor="start" x="386" y="-542.8" font-family="Times,serif" font-size="14.00">id :uuid</text>
<text text-anchor="start" x="386" y="-527.8" font-family="Times,serif" font-size="14.00">name :character varying</text>
<text text-anchor="start" x="386" y="-512.8" font-family="Times,serif" font-size="14.00">created_at :timestamp(6) without time zone</text>
<text text-anchor="start" x="386" y="-497.8" font-family="Times,serif" font-size="14.00">updated_at :timestamp(6) without time zone</text>
<text text-anchor="start" x="386" y="-482.8" font-family="Times,serif" font-size="14.00">slug :character varying</text>
</g>
<!-- Comic -->
<g id="node6" class="node">
<title>Comic</title>
<path fill="none" stroke="black" d="M1273,-158.5C1273,-158.5 1584,-158.5 1584,-158.5 1590,-158.5 1596,-164.5 1596,-170.5 1596,-170.5 1596,-387.5 1596,-387.5 1596,-393.5 1590,-399.5 1584,-399.5 1584,-399.5 1273,-399.5 1273,-399.5 1267,-399.5 1261,-393.5 1261,-387.5 1261,-387.5 1261,-170.5 1261,-170.5 1261,-164.5 1267,-158.5 1273,-158.5"/>
<text text-anchor="middle" x="1428.5" y="-384.3" font-family="Times,serif" font-size="14.00">Comic</text>
<polyline fill="none" stroke="black" points="1261,-376.5 1596,-376.5 "/>
<text text-anchor="start" x="1269" y="-361.3" font-family="Times,serif" font-size="14.00">id :uuid</text>
<text text-anchor="start" x="1269" y="-346.3" font-family="Times,serif" font-size="14.00">title :character varying</text>
<text text-anchor="start" x="1269" y="-331.3" font-family="Times,serif" font-size="14.00">page_count :integer</text>
<text text-anchor="start" x="1269" y="-316.3" font-family="Times,serif" font-size="14.00">published_year :integer</text>
<text text-anchor="start" x="1269" y="-301.3" font-family="Times,serif" font-size="14.00">publisher_id :uuid</text>
<text text-anchor="start" x="1269" y="-286.3" font-family="Times,serif" font-size="14.00">publication_type_id :uuid</text>
<text text-anchor="start" x="1269" y="-271.3" font-family="Times,serif" font-size="14.00">book_binding_id :uuid</text>
<text text-anchor="start" x="1269" y="-256.3" font-family="Times,serif" font-size="14.00">paper_type_id :uuid</text>
<text text-anchor="start" x="1269" y="-241.3" font-family="Times,serif" font-size="14.00">created_at :timestamp(6) without time zone</text>
<text text-anchor="start" x="1269" y="-226.3" font-family="Times,serif" font-size="14.00">updated_at :timestamp(6) without time zone</text>
<text text-anchor="start" x="1269" y="-211.3" font-family="Times,serif" font-size="14.00">slug :character varying</text>
<text text-anchor="start" x="1269" y="-196.3" font-family="Times,serif" font-size="14.00">link_guia_dos_quadrinhos :character varying</text>
<text text-anchor="start" x="1269" y="-181.3" font-family="Times,serif" font-size="14.00">story_count :integer</text>
<text text-anchor="start" x="1269" y="-166.3" font-family="Times,serif" font-size="14.00">collection_id :uuid</text>
</g>
<!-- Author&#45;&gt;Comic -->
<g id="edge2" class="edge">
<title>Author&#45;&gt;Comic</title>
<path fill="none" stroke="#f520c4" d="M722.9,-477.38C876.37,-434.44 1097.17,-372.68 1250.74,-329.72"/>
<polygon fill="#f520c4" stroke="#f520c4" points="722.77,-477.41 711.93,-475.77 717.96,-478.76 713.14,-480.11 713.14,-480.11 713.14,-480.11 717.96,-478.76 714.36,-484.44 722.77,-477.41 722.77,-477.41"/>
<polygon fill="#f520c4" stroke="#f520c4" points="1251.13,-329.62 1261.97,-331.25 1255.95,-328.27 1260.76,-326.92 1260.76,-326.92 1260.76,-326.92 1255.95,-328.27 1259.55,-322.59 1251.13,-329.62 1251.13,-329.62"/>
</g>
<!-- ComicAuthor -->
<g id="node7" class="node">
<title>ComicAuthor</title>
<path fill="none" stroke="black" d="M12,-0.5C12,-0.5 323,-0.5 323,-0.5 329,-0.5 335,-6.5 335,-12.5 335,-12.5 335,-94.5 335,-94.5 335,-100.5 329,-106.5 323,-106.5 323,-106.5 12,-106.5 12,-106.5 6,-106.5 0,-100.5 0,-94.5 0,-94.5 0,-12.5 0,-12.5 0,-6.5 6,-0.5 12,-0.5"/>
<text text-anchor="middle" x="167.5" y="-91.3" font-family="Times,serif" font-size="14.00">ComicAuthor</text>
<polyline fill="none" stroke="black" points="0,-83.5 335,-83.5 "/>
<text text-anchor="start" x="8" y="-68.3" font-family="Times,serif" font-size="14.00">id :uuid</text>
<text text-anchor="start" x="8" y="-53.3" font-family="Times,serif" font-size="14.00">comic_id :uuid</text>
<text text-anchor="start" x="8" y="-38.3" font-family="Times,serif" font-size="14.00">author_id :uuid</text>
<text text-anchor="start" x="8" y="-23.3" font-family="Times,serif" font-size="14.00">created_at :timestamp(6) without time zone</text>
<text text-anchor="start" x="8" y="-8.3" font-family="Times,serif" font-size="14.00">updated_at :timestamp(6) without time zone</text>
</g>
<!-- Author&#45;&gt;ComicAuthor -->
<g id="edge1" class="edge">
<title>Author&#45;&gt;ComicAuthor</title>
<path fill="none" stroke="#bdfc5b" d="M497.24,-466.68C424.67,-375.96 288.22,-205.4 215.69,-114.73"/>
<polygon fill="#bdfc5b" stroke="#bdfc5b" points="497.36,-466.82 500.09,-477.44 500.48,-470.72 503.6,-474.63 503.6,-474.63 503.6,-474.63 500.48,-470.72 507.12,-471.82 497.36,-466.82 497.36,-466.82"/>
<polygon fill="#bdfc5b" stroke="#bdfc5b" points="215.54,-114.55 212.81,-103.93 212.42,-110.65 209.3,-106.75 209.3,-106.75 209.3,-106.75 212.42,-110.65 205.78,-109.56 215.54,-114.55 215.54,-114.55"/>
</g>
<!-- BookBinding -->
<g id="node3" class="node">
<title>BookBinding</title>
<path fill="none" stroke="black" d="M1062,-475C1062,-475 1373,-475 1373,-475 1379,-475 1385,-481 1385,-487 1385,-487 1385,-569 1385,-569 1385,-575 1379,-581 1373,-581 1373,-581 1062,-581 1062,-581 1056,-581 1050,-575 1050,-569 1050,-569 1050,-487 1050,-487 1050,-481 1056,-475 1062,-475"/>
<text text-anchor="middle" x="1217.5" y="-565.8" font-family="Times,serif" font-size="14.00">BookBinding</text>
<polyline fill="none" stroke="black" points="1050,-558 1385,-558 "/>
<text text-anchor="start" x="1058" y="-542.8" font-family="Times,serif" font-size="14.00">id :uuid</text>
<text text-anchor="start" x="1058" y="-527.8" font-family="Times,serif" font-size="14.00">name :character varying</text>
<text text-anchor="start" x="1058" y="-512.8" font-family="Times,serif" font-size="14.00">created_at :timestamp(6) without time zone</text>
<text text-anchor="start" x="1058" y="-497.8" font-family="Times,serif" font-size="14.00">updated_at :timestamp(6) without time zone</text>
<text text-anchor="start" x="1058" y="-482.8" font-family="Times,serif" font-size="14.00">slug :character varying</text>
</g>
<!-- BookBinding&#45;&gt;Comic -->
<g id="edge3" class="edge">
<title>BookBinding&#45;&gt;Comic</title>
<path fill="none" stroke="#55c573" d="M1268.55,-467.24C1284.11,-449.03 1301.85,-428.26 1319.72,-407.34"/>
<polygon fill="#55c573" stroke="#55c573" points="1268.49,-467.32 1258.57,-472 1265.24,-471.12 1261.99,-474.92 1261.99,-474.92 1261.99,-474.92 1265.24,-471.12 1265.41,-477.84 1268.49,-467.32 1268.49,-467.32"/>
<polygon fill="#55c573" stroke="#55c573" points="1319.81,-407.24 1329.72,-402.56 1323.05,-403.44 1326.3,-399.64 1326.3,-399.64 1326.3,-399.64 1323.05,-403.44 1322.88,-396.71 1319.81,-407.24 1319.81,-407.24"/>
</g>
<!-- Character -->
<g id="node4" class="node">
<title>Character</title>
<path fill="none" stroke="black" d="M1975,-475C1975,-475 2286,-475 2286,-475 2292,-475 2298,-481 2298,-487 2298,-487 2298,-569 2298,-569 2298,-575 2292,-581 2286,-581 2286,-581 1975,-581 1975,-581 1969,-581 1963,-575 1963,-569 1963,-569 1963,-487 1963,-487 1963,-481 1969,-475 1975,-475"/>
<text text-anchor="middle" x="2130.5" y="-565.8" font-family="Times,serif" font-size="14.00">Character</text>
<polyline fill="none" stroke="black" points="1963,-558 2298,-558 "/>
<text text-anchor="start" x="1971" y="-542.8" font-family="Times,serif" font-size="14.00">id :uuid</text>
<text text-anchor="start" x="1971" y="-527.8" font-family="Times,serif" font-size="14.00">name :character varying</text>
<text text-anchor="start" x="1971" y="-512.8" font-family="Times,serif" font-size="14.00">created_at :timestamp(6) without time zone</text>
<text text-anchor="start" x="1971" y="-497.8" font-family="Times,serif" font-size="14.00">updated_at :timestamp(6) without time zone</text>
<text text-anchor="start" x="1971" y="-482.8" font-family="Times,serif" font-size="14.00">slug :character varying</text>
</g>
<!-- Character&#45;&gt;Comic -->
<g id="edge5" class="edge">
<title>Character&#45;&gt;Comic</title>
<path fill="none" stroke="#aa341f" d="M1972.78,-471.5C1863.72,-433.13 1718.48,-382.03 1605.47,-342.27"/>
<polygon fill="#aa341f" stroke="#aa341f" points="1973.05,-471.6 1980.99,-479.16 1977.77,-473.26 1982.48,-474.92 1982.48,-474.92 1982.48,-474.92 1977.77,-473.26 1983.98,-470.67 1973.05,-471.6 1973.05,-471.6"/>
<polygon fill="#aa341f" stroke="#aa341f" points="1605.45,-342.26 1597.51,-334.7 1600.73,-340.6 1596.02,-338.94 1596.02,-338.94 1596.02,-338.94 1600.73,-340.6 1594.52,-343.19 1605.45,-342.26 1605.45,-342.26"/>
</g>
<!-- ComicCharacter -->
<g id="node8" class="node">
<title>ComicCharacter</title>
<path fill="none" stroke="black" d="M2290,-0.5C2290,-0.5 2601,-0.5 2601,-0.5 2607,-0.5 2613,-6.5 2613,-12.5 2613,-12.5 2613,-94.5 2613,-94.5 2613,-100.5 2607,-106.5 2601,-106.5 2601,-106.5 2290,-106.5 2290,-106.5 2284,-106.5 2278,-100.5 2278,-94.5 2278,-94.5 2278,-12.5 2278,-12.5 2278,-6.5 2284,-0.5 2290,-0.5"/>
<text text-anchor="middle" x="2445.5" y="-91.3" font-family="Times,serif" font-size="14.00">ComicCharacter</text>
<polyline fill="none" stroke="black" points="2278,-83.5 2613,-83.5 "/>
<text text-anchor="start" x="2286" y="-68.3" font-family="Times,serif" font-size="14.00">id :uuid</text>
<text text-anchor="start" x="2286" y="-53.3" font-family="Times,serif" font-size="14.00">comic_id :uuid</text>
<text text-anchor="start" x="2286" y="-38.3" font-family="Times,serif" font-size="14.00">character_id :uuid</text>
<text text-anchor="start" x="2286" y="-23.3" font-family="Times,serif" font-size="14.00">created_at :timestamp(6) without time zone</text>
<text text-anchor="start" x="2286" y="-8.3" font-family="Times,serif" font-size="14.00">updated_at :timestamp(6) without time zone</text>
</g>
<!-- Character&#45;&gt;ComicCharacter -->
<g id="edge4" class="edge">
<title>Character&#45;&gt;ComicCharacter</title>
<path fill="none" stroke="#f97bf3" d="M2171.09,-466.11C2231.55,-375.43 2344.59,-205.87 2404.99,-115.26"/>
<polygon fill="#f97bf3" stroke="#f97bf3" points="2170.96,-466.31 2161.67,-472.13 2168.19,-470.47 2165.41,-474.63 2165.41,-474.63 2165.41,-474.63 2168.19,-470.47 2169.16,-477.13 2170.96,-466.31 2170.96,-466.31"/>
<polygon fill="#f97bf3" stroke="#f97bf3" points="2405.12,-115.07 2414.41,-109.24 2407.9,-110.91 2410.67,-106.75 2410.67,-106.75 2410.67,-106.75 2407.9,-110.91 2406.93,-104.25 2405.12,-115.07 2405.12,-115.07"/>
</g>
<!-- Collection -->
<g id="node5" class="node">
<title>Collection</title>
<path fill="none" stroke="black" d="M1415,-467.5C1415,-467.5 1726,-467.5 1726,-467.5 1732,-467.5 1738,-473.5 1738,-479.5 1738,-479.5 1738,-576.5 1738,-576.5 1738,-582.5 1732,-588.5 1726,-588.5 1726,-588.5 1415,-588.5 1415,-588.5 1409,-588.5 1403,-582.5 1403,-576.5 1403,-576.5 1403,-479.5 1403,-479.5 1403,-473.5 1409,-467.5 1415,-467.5"/>
<text text-anchor="middle" x="1570.5" y="-573.3" font-family="Times,serif" font-size="14.00">Collection</text>
<polyline fill="none" stroke="black" points="1403,-565.5 1738,-565.5 "/>
<text text-anchor="start" x="1411" y="-550.3" font-family="Times,serif" font-size="14.00">id :uuid</text>
<text text-anchor="start" x="1411" y="-535.3" font-family="Times,serif" font-size="14.00">name :character varying</text>
<text text-anchor="start" x="1411" y="-520.3" font-family="Times,serif" font-size="14.00">created_at :timestamp(6) without time zone</text>
<text text-anchor="start" x="1411" y="-505.3" font-family="Times,serif" font-size="14.00">updated_at :timestamp(6) without time zone</text>
<text text-anchor="start" x="1411" y="-490.3" font-family="Times,serif" font-size="14.00">slug :character varying</text>
<text text-anchor="start" x="1411" y="-475.3" font-family="Times,serif" font-size="14.00">link_guia_dos_quadrinhos :character varying</text>
</g>
<!-- Collection&#45;&gt;Comic -->
<g id="edge6" class="edge">
<title>Collection&#45;&gt;Comic</title>
<path fill="none" stroke="#330879" d="M1531.07,-458.41C1522.13,-442.86 1512.35,-425.85 1502.5,-408.71"/>
<polygon fill="#330879" stroke="#330879" points="1531.14,-458.54 1532.22,-469.45 1533.63,-462.87 1536.13,-467.21 1536.13,-467.21 1536.13,-467.21 1533.63,-462.87 1540.03,-464.97 1531.14,-458.54 1531.14,-458.54"/>
<polygon fill="#330879" stroke="#330879" points="1502.32,-408.41 1501.24,-397.5 1499.83,-404.08 1497.34,-399.74 1497.34,-399.74 1497.34,-399.74 1499.83,-404.08 1493.44,-401.98 1502.32,-408.41 1502.32,-408.41"/>
</g>
<!-- Comic&#45;&gt;ComicAuthor -->
<g id="edge10" class="edge">
<title>Comic&#45;&gt;ComicAuthor</title>
<path fill="none" stroke="#52d820" d="M1250.66,-257.38C1036.81,-230.9 667.41,-179.81 345.05,-107.3"/>
<polygon fill="#52d820" stroke="#52d820" points="1250.9,-257.41 1260.27,-263.1 1255.86,-258.02 1260.82,-258.63 1260.82,-258.63 1260.82,-258.63 1255.86,-258.02 1261.38,-254.17 1250.9,-257.41 1250.9,-257.41"/>
<polygon fill="#52d820" stroke="#52d820" points="344.8,-107.24 336.04,-100.65 339.92,-106.14 335.05,-105.04 335.05,-105.04 335.05,-105.04 339.92,-106.14 334.05,-109.43 344.8,-107.24 344.8,-107.24"/>
</g>
<!-- Comic&#45;&gt;ComicCharacter -->
<g id="edge11" class="edge">
<title>Comic&#45;&gt;ComicCharacter</title>
<path fill="none" stroke="#bade27" d="M1606.14,-246.86C1774.68,-216.17 2034.91,-165.78 2267.89,-107.37"/>
<polygon fill="#bade27" stroke="#bade27" points="1606.13,-246.87 1595.48,-244.23 1601.21,-247.76 1596.29,-248.65 1596.29,-248.65 1596.29,-248.65 1601.21,-247.76 1597.09,-253.08 1606.13,-246.87 1606.13,-246.87"/>
<polygon fill="#bade27" stroke="#bade27" points="2268.21,-107.29 2279.01,-109.21 2273.06,-106.07 2277.91,-104.85 2277.91,-104.85 2277.91,-104.85 2273.06,-106.07 2276.81,-100.48 2268.21,-107.29 2268.21,-107.29"/>
</g>
<!-- PaperType -->
<g id="node9" class="node">
<title>PaperType</title>
<path fill="none" stroke="black" d="M365,-0.5C365,-0.5 676,-0.5 676,-0.5 682,-0.5 688,-6.5 688,-12.5 688,-12.5 688,-94.5 688,-94.5 688,-100.5 682,-106.5 676,-106.5 676,-106.5 365,-106.5 365,-106.5 359,-106.5 353,-100.5 353,-94.5 353,-94.5 353,-12.5 353,-12.5 353,-6.5 359,-0.5 365,-0.5"/>
<text text-anchor="middle" x="520.5" y="-91.3" font-family="Times,serif" font-size="14.00">PaperType</text>
<polyline fill="none" stroke="black" points="353,-83.5 688,-83.5 "/>
<text text-anchor="start" x="361" y="-68.3" font-family="Times,serif" font-size="14.00">id :uuid</text>
<text text-anchor="start" x="361" y="-53.3" font-family="Times,serif" font-size="14.00">name :character varying</text>
<text text-anchor="start" x="361" y="-38.3" font-family="Times,serif" font-size="14.00">created_at :timestamp(6) without time zone</text>
<text text-anchor="start" x="361" y="-23.3" font-family="Times,serif" font-size="14.00">updated_at :timestamp(6) without time zone</text>
<text text-anchor="start" x="361" y="-8.3" font-family="Times,serif" font-size="14.00">slug :character varying</text>
</g>
<!-- Comic&#45;&gt;PaperType -->
<g id="edge9" class="edge">
<title>Comic&#45;&gt;PaperType</title>
<path fill="none" stroke="#943f8d" d="M1250.85,-239.65C1104.61,-207.34 891.88,-158.65 697.92,-107.35"/>
<polygon fill="#943f8d" stroke="#943f8d" points="1251.22,-239.73 1260.02,-246.28 1256.1,-240.81 1260.99,-241.89 1260.99,-241.89 1260.99,-241.89 1256.1,-240.81 1261.95,-237.49 1251.22,-239.73 1251.22,-239.73"/>
<polygon fill="#943f8d" stroke="#943f8d" points="697.78,-107.31 689.27,-100.4 692.95,-106.03 688.12,-104.75 688.12,-104.75 688.12,-104.75 692.95,-106.03 686.96,-109.1 697.78,-107.31 697.78,-107.31"/>
</g>
<!-- PublicationType -->
<g id="node10" class="node">
<title>PublicationType</title>
<path fill="none" stroke="black" d="M718,-0.5C718,-0.5 1029,-0.5 1029,-0.5 1035,-0.5 1041,-6.5 1041,-12.5 1041,-12.5 1041,-94.5 1041,-94.5 1041,-100.5 1035,-106.5 1029,-106.5 1029,-106.5 718,-106.5 718,-106.5 712,-106.5 706,-100.5 706,-94.5 706,-94.5 706,-12.5 706,-12.5 706,-6.5 712,-0.5 718,-0.5"/>
<text text-anchor="middle" x="873.5" y="-91.3" font-family="Times,serif" font-size="14.00">PublicationType</text>
<polyline fill="none" stroke="black" points="706,-83.5 1041,-83.5 "/>
<text text-anchor="start" x="714" y="-68.3" font-family="Times,serif" font-size="14.00">id :uuid</text>
<text text-anchor="start" x="714" y="-53.3" font-family="Times,serif" font-size="14.00">name :character varying</text>
<text text-anchor="start" x="714" y="-38.3" font-family="Times,serif" font-size="14.00">created_at :timestamp(6) without time zone</text>
<text text-anchor="start" x="714" y="-23.3" font-family="Times,serif" font-size="14.00">updated_at :timestamp(6) without time zone</text>
<text text-anchor="start" x="714" y="-8.3" font-family="Times,serif" font-size="14.00">slug :character varying</text>
</g>
<!-- Comic&#45;&gt;PublicationType -->
<g id="edge8" class="edge">
<title>Comic&#45;&gt;PublicationType</title>
<path fill="none" stroke="#ddd1b6" d="M1251.57,-206.75C1174.24,-175.61 1084.87,-139.62 1012.44,-110.45"/>
<polygon fill="#ddd1b6" stroke="#ddd1b6" points="1251.58,-206.75 1259.17,-214.66 1256.21,-208.62 1260.85,-210.49 1260.85,-210.49 1260.85,-210.49 1256.21,-208.62 1262.53,-206.31 1251.58,-206.75 1251.58,-206.75"/>
<polygon fill="#ddd1b6" stroke="#ddd1b6" points="1012.06,-110.3 1004.47,-102.39 1007.42,-108.43 1002.78,-106.56 1002.78,-106.56 1002.78,-106.56 1007.42,-108.43 1001.1,-110.74 1012.06,-110.3 1012.06,-110.3"/>
</g>
<!-- Publisher -->
<g id="node11" class="node">
<title>Publisher</title>
<path fill="none" stroke="black" d="M1071,-0.5C1071,-0.5 1382,-0.5 1382,-0.5 1388,-0.5 1394,-6.5 1394,-12.5 1394,-12.5 1394,-94.5 1394,-94.5 1394,-100.5 1388,-106.5 1382,-106.5 1382,-106.5 1071,-106.5 1071,-106.5 1065,-106.5 1059,-100.5 1059,-94.5 1059,-94.5 1059,-12.5 1059,-12.5 1059,-6.5 1065,-0.5 1071,-0.5"/>
<text text-anchor="middle" x="1226.5" y="-91.3" font-family="Times,serif" font-size="14.00">Publisher</text>
<polyline fill="none" stroke="black" points="1059,-83.5 1394,-83.5 "/>
<text text-anchor="start" x="1067" y="-68.3" font-family="Times,serif" font-size="14.00">id :uuid</text>
<text text-anchor="start" x="1067" y="-53.3" font-family="Times,serif" font-size="14.00">name :character varying</text>
<text text-anchor="start" x="1067" y="-38.3" font-family="Times,serif" font-size="14.00">created_at :timestamp(6) without time zone</text>
<text text-anchor="start" x="1067" y="-23.3" font-family="Times,serif" font-size="14.00">updated_at :timestamp(6) without time zone</text>
<text text-anchor="start" x="1067" y="-8.3" font-family="Times,serif" font-size="14.00">slug :character varying</text>
</g>
<!-- Comic&#45;&gt;Publisher -->
<g id="edge7" class="edge">
<title>Comic&#45;&gt;Publisher</title>
<path fill="none" stroke="#a8ba54" d="M1313.5,-150.76C1302.11,-138.16 1290.96,-125.82 1280.65,-114.42"/>
<polygon fill="#a8ba54" stroke="#a8ba54" points="1313.7,-150.98 1317.07,-161.42 1317.05,-154.69 1320.4,-158.4 1320.4,-158.4 1320.4,-158.4 1317.05,-154.69 1323.74,-155.38 1313.7,-150.98 1313.7,-150.98"/>
<polygon fill="#a8ba54" stroke="#a8ba54" points="1280.36,-114.09 1277,-103.66 1277.01,-110.39 1273.66,-106.68 1273.66,-106.68 1273.66,-106.68 1277.01,-110.39 1270.32,-109.69 1280.36,-114.09 1280.36,-114.09"/>
</g>
<!-- Reading -->
<g id="node12" class="node">
<title>Reading</title>
<path fill="none" stroke="black" d="M1424,-0.5C1424,-0.5 1735,-0.5 1735,-0.5 1741,-0.5 1747,-6.5 1747,-12.5 1747,-12.5 1747,-94.5 1747,-94.5 1747,-100.5 1741,-106.5 1735,-106.5 1735,-106.5 1424,-106.5 1424,-106.5 1418,-106.5 1412,-100.5 1412,-94.5 1412,-94.5 1412,-12.5 1412,-12.5 1412,-6.5 1418,-0.5 1424,-0.5"/>
<text text-anchor="middle" x="1579.5" y="-91.3" font-family="Times,serif" font-size="14.00">Reading</text>
<polyline fill="none" stroke="black" points="1412,-83.5 1747,-83.5 "/>
<text text-anchor="start" x="1420" y="-68.3" font-family="Times,serif" font-size="14.00">id :uuid</text>
<text text-anchor="start" x="1420" y="-53.3" font-family="Times,serif" font-size="14.00">comic_id :uuid</text>
<text text-anchor="start" x="1420" y="-38.3" font-family="Times,serif" font-size="14.00">read_at :date</text>
<text text-anchor="start" x="1420" y="-23.3" font-family="Times,serif" font-size="14.00">created_at :timestamp(6) without time zone</text>
<text text-anchor="start" x="1420" y="-8.3" font-family="Times,serif" font-size="14.00">updated_at :timestamp(6) without time zone</text>
</g>
<!-- Comic&#45;&gt;Reading -->
<g id="edge12" class="edge">
<title>Comic&#45;&gt;Reading</title>
<path fill="none" stroke="#07cc40" d="M1515.04,-149.91C1523.15,-137.91 1531.08,-126.16 1538.46,-115.24"/>
<polygon fill="#07cc40" stroke="#07cc40" points="1514.9,-150.11 1505.58,-155.88 1512.1,-154.26 1509.3,-158.4 1509.3,-158.4 1509.3,-158.4 1512.1,-154.26 1513.03,-160.92 1514.9,-150.11 1514.9,-150.11"/>
<polygon fill="#07cc40" stroke="#07cc40" points="1538.65,-114.96 1547.98,-109.2 1541.45,-110.82 1544.25,-106.68 1544.25,-106.68 1544.25,-106.68 1541.45,-110.82 1540.52,-104.16 1538.65,-114.96 1538.65,-114.96"/>
</g>
<!-- ActiveStorage::Attachment -->
<g id="node14" class="node">
<title>ActiveStorage::Attachment</title>
<ellipse fill="none" stroke="black" cx="1900.5" cy="-53.5" rx="135.68" ry="18"/>
<text text-anchor="middle" x="1900.5" y="-49.8" font-family="Times,serif" font-size="14.00">ActiveStorage::Attachment</text>
</g>
<!-- Comic&#45;&gt;ActiveStorage::Attachment -->
<g id="edge13" class="edge">
<title>Comic&#45;&gt;ActiveStorage::Attachment</title>
<path fill="none" stroke="#55b79c" d="M1605.45,-194.21C1696.09,-151.29 1799.15,-102.49 1856.32,-75.42"/>
<polygon fill="#55b79c" stroke="#55b79c" points="1605.28,-194.29 1594.31,-194.51 1600.76,-196.43 1596.24,-198.57 1596.24,-198.57 1596.24,-198.57 1600.76,-196.43 1598.16,-202.64 1605.28,-194.29 1605.28,-194.29"/>
<polygon fill="#55b79c" stroke="#55b79c" points="1856.4,-75.38 1867.36,-75.17 1860.92,-73.24 1865.44,-71.1 1865.44,-71.1 1865.44,-71.1 1860.92,-73.24 1863.51,-67.04 1856.4,-75.38 1856.4,-75.38"/>
<text text-anchor="middle" x="1836.5" y="-128.8" font-family="Times,serif" font-size="14.00">cover_image_attachment</text>
</g>
<!-- ActiveStorage::Blob -->
<g id="node15" class="node">
<title>ActiveStorage::Blob</title>
<ellipse fill="none" stroke="black" cx="2157.5" cy="-53.5" rx="102.88" ry="18"/>
<text text-anchor="middle" x="2157.5" y="-49.8" font-family="Times,serif" font-size="14.00">ActiveStorage::Blob</text>
</g>
<!-- Comic&#45;&gt;ActiveStorage::Blob -->
<g id="edge14" class="edge">
<title>Comic&#45;&gt;ActiveStorage::Blob</title>
<path fill="none" stroke="#9e62dd" d="M1606.35,-237.47C1731.05,-206.94 1900.66,-161.14 2045.5,-107 2069.86,-97.89 2096.23,-85.66 2117.26,-75.29"/>
<polygon fill="#9e62dd" stroke="#9e62dd" points="1606.04,-237.54 1595.25,-235.54 1601.18,-238.73 1596.32,-239.91 1596.32,-239.91 1596.32,-239.91 1601.18,-238.73 1597.39,-244.29 1606.04,-237.54 1606.04,-237.54"/>
<polygon fill="#9e62dd" stroke="#9e62dd" points="2117.27,-75.28 2128.23,-74.85 2121.75,-73.05 2126.22,-70.82 2126.22,-70.82 2126.22,-70.82 2121.75,-73.05 2124.22,-66.8 2117.27,-75.28 2117.27,-75.28"/>
<text text-anchor="middle" x="2043" y="-128.8" font-family="Times,serif" font-size="14.00">cover_image_blob</text>
</g>
<!-- User -->
<g id="node13" class="node">
<title>User</title>
<path fill="none" stroke="black" d="M2328,-437.5C2328,-437.5 2729,-437.5 2729,-437.5 2735,-437.5 2741,-443.5 2741,-449.5 2741,-449.5 2741,-606.5 2741,-606.5 2741,-612.5 2735,-618.5 2729,-618.5 2729,-618.5 2328,-618.5 2328,-618.5 2322,-618.5 2316,-612.5 2316,-606.5 2316,-606.5 2316,-449.5 2316,-449.5 2316,-443.5 2322,-437.5 2328,-437.5"/>
<text text-anchor="middle" x="2528.5" y="-603.3" font-family="Times,serif" font-size="14.00">User</text>
<polyline fill="none" stroke="black" points="2316,-595.5 2741,-595.5 "/>
<text text-anchor="start" x="2324" y="-580.3" font-family="Times,serif" font-size="14.00">id :uuid</text>
<text text-anchor="start" x="2324" y="-565.3" font-family="Times,serif" font-size="14.00">email :character varying</text>
<text text-anchor="start" x="2324" y="-550.3" font-family="Times,serif" font-size="14.00">encrypted_password :character varying</text>
<text text-anchor="start" x="2324" y="-535.3" font-family="Times,serif" font-size="14.00">reset_password_token :character varying</text>
<text text-anchor="start" x="2324" y="-520.3" font-family="Times,serif" font-size="14.00">reset_password_sent_at :timestamp(6) without time zone</text>
<text text-anchor="start" x="2324" y="-505.3" font-family="Times,serif" font-size="14.00">remember_created_at :timestamp(6) without time zone</text>
<text text-anchor="start" x="2324" y="-490.3" font-family="Times,serif" font-size="14.00">created_at :timestamp(6) without time zone</text>
<text text-anchor="start" x="2324" y="-475.3" font-family="Times,serif" font-size="14.00">updated_at :timestamp(6) without time zone</text>
<text text-anchor="start" x="2324" y="-460.3" font-family="Times,serif" font-size="14.00">admin :boolean</text>
<text text-anchor="start" x="2324" y="-445.3" font-family="Times,serif" font-size="14.00">username :character varying</text>
</g>
</g>
</svg>
